<?xml version="1.0" encoding="UTF-8" standalone="no"?>
<!-- Created with Inkscape (http://www.inkscape.org/) -->

<svg
   version="1.1"
   id="svg272"
   width="880"
   height="880"
   viewBox="0 0 880 880"
   sodipodi:docname="bonfire-camping-publicdomain.svg"
   inkscape:version="1.2 (dc2aedaf03, 2022-05-15)"
   xmlns:inkscape="http://www.inkscape.org/namespaces/inkscape"
   xmlns:sodipodi="http://sodipodi.sourceforge.net/DTD/sodipodi-0.dtd"
   xmlns="http://www.w3.org/2000/svg"
   xmlns:svg="http://www.w3.org/2000/svg">
  <defs
     id="defs276">
    <clipPath
       clipPathUnits="userSpaceOnUse"
       id="clipPath288">
      <path
         d="M 0,660 H 660 V 0 H 0 Z"
         id="path286" />
    </clipPath>
  </defs>
  <sodipodi:namedview
     id="namedview274"
     pagecolor="#ffffff"
     bordercolor="#000000"
     borderopacity="0.25"
     inkscape:showpageshadow="2"
     inkscape:pageopacity="0.0"
     inkscape:pagecheckerboard="0"
     inkscape:deskcolor="#d1d1d1"
     showgrid="false"
     inkscape:zoom="0.95113636"
     inkscape:cx="441.05137"
     inkscape:cy="440.52569"
     inkscape:window-width="1920"
     inkscape:window-height="1017"
     inkscape:window-x="-8"
     inkscape:window-y="-8"
     inkscape:window-maximized="1"
     inkscape:current-layer="g280">
    <inkscape:page
       x="0"
       y="0"
       id="page278"
       width="880"
       height="880" />
  </sodipodi:namedview>
  <g
     id="g280"
     inkscape:groupmode="layer"
     inkscape:label="Page 1"
     transform="matrix(1.3333333,0,0,-1.3333333,0,880)">
    <g
       id="g282">
      <g
         id="g284"
         clip-path="url(#clipPath288)">
        <g
           id="g290"
           transform="translate(336.248,168.7646)">
          <path
             d="m 0,0 c 142.045,0 257.898,30.508 257.898,67.914 0,37.405 -115.853,67.913 -257.898,67.913 -142.045,0 -257.897,-30.508 -257.897,-67.913 C -257.897,30.508 -142.045,0 0,0"
             style="fill:#c6de7e;fill-opacity:1;fill-rule:evenodd;stroke:none"
             id="path292" />
        </g>
        <g
           id="g294"
           transform="translate(517.7393,227.7422)">
          <path
             d="m 0,0 c -1.334,-10.234 -26.299,-0.477 -27.862,9.9 -8.818,58.563 7.441,117.715 -0.188,176.4 -3.305,25.437 -26.781,45.003 -31.87,70.2 -3.14,15.546 14.808,24.819 24.238,11.701 10.393,-14.456 3.416,-46.537 19.427,-43.423 25.372,4.934 28.977,31.196 47.597,49.803 13.071,13.062 27.475,1.468 19.615,-15.38 C 37.745,230.883 6.498,213.535 0.329,182.154 -11.459,122.188 7.948,60.932 0,0"
             style="fill:#996633;fill-opacity:1;fill-rule:evenodd;stroke:none"
             id="path296" />
        </g>
        <g
           id="g298"
           transform="translate(520.2266,463.4834)">
          <path
             d="m 0,0 c 9.808,10.622 15.456,26.432 27.671,38.84 2.578,2.619 5.209,4.244 7.703,5.037 C 16.462,28.632 23.893,21.96 11.276,4.496 8.971,1.304 4.803,-0.088 0,0"
             style="fill:#b5804c;fill-opacity:1;fill-rule:evenodd;stroke:none"
             id="path300" />
        </g>
        <g
           id="g302"
           transform="translate(491.667,387.8604)">
          <path
             d="m 0,0 c -0.241,8.736 -0.844,17.464 -1.978,26.182 -3.305,25.437 -26.781,45.002 -31.87,70.2 -2.551,12.637 8.827,21.127 18.241,16.818 -1.615,-1.662 -2.954,-4.021 -4.235,-7.365 -3.345,-8.731 8.548,-37.279 15.097,-43.88 C 1.089,56.077 -6.896,48.464 4.071,35.625 17.796,19.553 9.526,10.727 0,0"
             style="fill:#b5804c;fill-opacity:1;fill-rule:evenodd;stroke:none"
             id="path304" />
        </g>
        <g
           id="g306"
           transform="translate(487.1279,287.4814)">
          <path
             d="M 0,0 C 0.411,16.927 1.737,33.878 2.829,50.828 7.751,46.243 11.364,40.686 7.675,30.488 5.772,25.229 8.126,15.425 11.981,11.649 19.732,4.056 13.961,2.811 7.359,0.117 6.27,-0.327 3.442,-0.091 0,0"
             style="fill:#b5804c;fill-opacity:1;fill-rule:evenodd;stroke:none"
             id="path308" />
        </g>
        <g
           id="g310"
           transform="translate(489.6563,237.6426)">
          <path
             d="M 0,0 C -1.444,9.745 -2.202,19.507 -2.5,29.28 -1.045,28.548 0.287,27.617 1.409,26.426 12.088,15.093 2.899,16.634 0,0"
             style="fill:#b5804c;fill-opacity:1;fill-rule:evenodd;stroke:none"
             id="path312" />
        </g>
        <g
           id="g314"
           transform="translate(517.7393,227.7422)">
          <path
             d="m 0,0 c -1.122,-8.608 -18.959,-3.073 -25.531,5.077 6.621,-4.059 12.089,-2.618 14.273,-1.697 9.959,4.193 8.933,26.997 4.326,29.9 -21.402,13.488 -17.921,28.26 -0.452,15.683 4.885,-3.515 4.666,35.684 1.283,41.263 -3.211,5.294 -1.782,-8.296 -4.137,-13.082 -2.701,-5.493 -6.742,-1.45 -6.058,9.68 0.301,4.894 -0.926,43.113 -1.285,47.097 -2.526,27.974 -0.127,16.481 5.686,16.481 4.545,0 2.968,34.858 2.681,40.294 -0.531,10.071 -18.283,22.319 -6.647,23.788 50.195,6.335 43.145,27.049 68.5,49.533 l 0.019,0.018 c -0.365,-1.548 -0.922,-3.164 -1.701,-4.834 C 37.745,230.883 6.498,213.535 0.329,182.154 -11.459,122.188 7.948,60.932 0,0"
             style="fill:#734415;fill-opacity:1;fill-rule:evenodd;stroke:none"
             id="path316" />
        </g>
        <g
           id="g318"
           transform="translate(182.5679,227.7422)">
          <path
             d="m 0,0 c -1.312,-10.234 -25.874,-0.477 -27.41,9.9 -8.674,58.563 7.32,117.715 -0.185,176.4 -3.252,25.437 -26.346,45.003 -31.353,70.2 -3.089,15.546 14.568,24.819 23.844,11.701 10.225,-14.456 3.362,-46.537 19.112,-43.423 24.961,4.934 28.506,31.196 46.824,49.803 12.858,13.062 27.029,1.468 19.296,-15.38 C 37.131,230.883 6.391,213.535 0.322,182.154 -11.275,122.188 7.818,60.932 0,0"
             style="fill:#996633;fill-opacity:1;fill-rule:evenodd;stroke:none"
             id="path320" />
        </g>
        <g
           id="g322"
           transform="translate(167.3208,452.6787)">
          <path
             d="M 0,0 C 23.073,5.042 27.53,28.691 43.473,46.838 H 67.209 C 67.994,43.356 67.558,39.02 65.375,34.264 53.486,8.362 26.758,-8.364 17.64,-35.045 H 0 Z"
             style="fill:#996633;fill-opacity:1;fill-rule:evenodd;stroke:none"
             id="path324" />
        </g>
        <g
           id="g326"
           transform="translate(185.728,463.4834)">
          <path
             d="m 0,0 c 9.809,10.622 15.457,26.432 27.672,38.84 2.577,2.619 5.208,4.244 7.704,5.037 C 16.462,28.632 23.893,21.96 11.276,4.496 8.971,1.304 4.804,-0.088 0,0 m -28.811,-75.623 c -0.236,8.736 -0.83,17.464 -1.944,26.182 -3.252,25.437 -26.347,45.002 -31.353,70.2 -2.51,12.637 8.684,21.127 17.946,16.818 -1.59,-1.662 -2.906,-4.021 -4.167,-7.365 -3.292,-8.731 8.409,-37.279 14.85,-43.88 5.741,-5.878 -2.115,-13.491 8.674,-26.33 13.502,-16.072 5.367,-24.898 -4.006,-35.625 m -4.288,-100.379 c 0.412,16.927 1.738,33.878 2.829,50.828 4.924,-4.585 8.536,-10.142 4.847,-20.34 -1.901,-5.259 0.45,-15.063 4.305,-18.839 7.752,-7.593 1.98,-8.838 -4.621,-11.532 -1.09,-0.444 -3.918,-0.208 -7.36,-0.117 m 2.529,-49.839 c -1.445,9.745 -2.201,19.507 -2.499,29.281 1.453,-0.733 2.787,-1.664 3.909,-2.855 10.679,-11.333 1.49,-9.792 -1.41,-26.426"
             style="fill:#b5804c;fill-opacity:1;fill-rule:evenodd;stroke:none"
             id="path328" />
        </g>
        <g
           id="g330"
           transform="translate(182.5679,227.7422)">
          <path
             d="m 0,0 c -1.105,-8.608 -18.651,-3.073 -25.117,5.077 6.512,-4.059 11.891,-2.618 14.042,-1.697 9.796,4.193 8.786,26.997 4.255,29.9 -21.055,13.488 -17.63,28.26 -0.445,15.683 4.805,-3.515 4.589,35.684 1.262,41.263 -3.159,5.294 -1.753,-8.296 -4.069,-13.082 -2.658,-5.493 -6.633,-1.45 -5.96,9.68 0.297,4.894 -0.909,43.113 -1.265,47.097 -2.485,27.974 -0.125,16.481 5.594,16.481 4.47,0 2.92,34.858 2.637,40.294 -0.522,10.071 -17.987,22.319 -6.539,23.788 49.38,6.335 42.444,27.049 67.388,49.533 l 0.019,0.018 c -0.361,-1.548 -0.909,-3.164 -1.674,-4.834 C 37.131,230.883 6.391,213.535 0.322,182.154 -11.275,122.188 7.818,60.932 0,0"
             style="fill:#734415;fill-opacity:1;fill-rule:evenodd;stroke:none"
             id="path332" />
        </g>
        <g
           id="g334"
           transform="translate(486.5693,484.7427)">
          <path
             d="m 0,0 c 5.102,-0.055 10.204,-0.074 15.308,-0.051 32.979,0.151 66.084,8.953 98.86,6.393 15.353,-1.199 17.389,-25.892 1.72,-30.481 -31.661,-9.275 -65.192,-8.63 -98.205,-8.168 v 0.861 c -1.02,-0.298 -2.078,-0.559 -3.177,-0.777 -0.077,-0.015 -0.148,-0.024 -0.225,-0.037 l -3.64,0.046 C 2.432,-30.127 3.271,-13.553 0,0 m -253.918,2.105 c 19.249,1.234 38.504,2.153 57.749,2.819 55.9,1.936 111.683,-2.521 167.532,-4.295 0.05,-0.373 0.111,-0.748 0.186,-1.129 2.233,-11.242 8.066,-21.362 14.134,-31.383 -62.409,1.636 -124.524,10.31 -187.011,9.189 -24.258,-0.435 -48.504,-1.952 -72.731,-4.022 7.716,8.943 15.199,18.096 20.141,28.821 m -141.261,-41.371 c -33.014,-3.356 -38.709,19.213 -5.588,24.811 37.862,6.4 75.993,10.963 114.216,14.157 -7.889,-12.76 -14.241,-25.146 -27.659,-30.27 -27.02,-2.815 -54.011,-5.958 -80.969,-8.698"
             style="fill:#996633;fill-opacity:1;fill-rule:evenodd;stroke:none"
             id="path336" />
        </g>
        <g
           id="g338"
           transform="translate(486.5713,484.7417)">
          <path
             d="m 0,0 c 5.101,-0.055 10.202,-0.073 15.306,-0.05 32.535,0.149 65.19,8.717 97.535,6.49 0.18,-2.779 0.283,-5.921 0.468,-9.552 0.724,-14.292 -31.024,-7.425 -37.507,-5.275 C 58.213,-2.552 60.12,0.42 38.591,0.171 26.764,0.033 13.926,-4.498 1.526,-8.04 1.106,-5.331 0.629,-2.609 0,0 m -64.792,2.063 c 12.048,-0.543 24.1,-1.051 36.153,-1.433 0.05,-0.373 0.111,-0.749 0.186,-1.129 0.792,-3.987 2.039,-7.833 3.587,-11.583 -4.399,0.37 -8.551,1.546 -12.366,3.881 -9.343,5.72 -18.284,8.13 -27.56,10.264 m -119.8,3.173 c 18.011,0.353 36.013,0.109 54.009,-0.432 -6.197,-4.746 -13.889,-8.973 -28.119,-7.219 -8.331,1.026 -17.003,3.844 -25.89,7.651 m -229.544,-23.703 c 3.417,1.676 7.849,3.081 13.367,4.013 21.28,3.598 42.647,6.615 64.067,9.134 -5.59,-9.887 -14.773,-17.075 -25.357,-14.478 -3.485,0.856 -26.455,7.347 -52.077,1.331"
             style="fill:#b5804c;fill-opacity:1;fill-rule:evenodd;stroke:none"
             id="path340" />
        </g>
        <g
           id="g342"
           transform="translate(489.6182,466.6162)">
          <path
             d="m 0,0 c 29.576,1.785 58.427,3.837 72.864,0.671 40.609,-8.907 50.473,11.981 38.255,23.798 15.354,-1.199 17.389,-25.892 1.72,-30.482 -31.661,-9.275 -65.192,-8.63 -98.205,-8.167 v 0.86 c -1.02,-0.298 -2.077,-0.559 -3.177,-0.776 -0.077,-0.016 -0.148,-0.024 -0.225,-0.037 l -3.64,0.045 C 2.99,-12.917 1.233,-7.193 0,0 m -262.186,10.735 c 33.654,0.958 79.984,1.14 80.886,0.738 20.534,-9.166 72.553,8.504 94.12,-6.496 10.021,-6.97 34.951,-7.448 62.701,-6.283 2.176,-4.213 4.624,-8.341 7.113,-12.451 -62.409,1.637 -124.524,10.311 -187.01,9.189 -24.259,-0.435 -48.505,-1.951 -72.732,-4.022 5.342,6.191 10.569,12.482 14.922,19.325 M -398.228,-21.14 c -13.858,-1.408 -22.9,1.751 -26.28,6.305 12.56,-2.085 23.561,-2.944 29.644,0.543 18.966,10.872 73.489,5.965 77.591,13.943 0.088,0.015 19.264,7.453 20.705,8.764 0.175,0.159 0.693,0.312 1.481,0.458 -5.825,-9.29 -11.947,-17.41 -22.172,-21.315 -27.02,-2.815 -54.011,-5.958 -80.969,-8.698"
             style="fill:#734415;fill-opacity:1;fill-rule:evenodd;stroke:none"
             id="path344" />
        </g>
        <g
           id="g346"
           transform="translate(427.5811,424.2964)">
          <path
             d="m 0,0 c 0,-54.599 -38.295,-98.86 -85.536,-98.86 -47.241,0 -85.537,44.261 -85.537,98.86 z"
             style="fill:#663300;fill-opacity:1;fill-rule:evenodd;stroke:none"
             id="path348" />
        </g>
        <g
           id="g350"
           transform="translate(293.4272,347.2202)">
          <path
             d="m 0,0 c -15.63,17.912 -25.312,42.748 -25.312,70.198 h 90.7 L -14.465,62.123 C -17.01,37.559 -11.375,15.902 0,0"
             style="fill:#854300;fill-opacity:1;fill-rule:evenodd;stroke:none"
             id="path352" />
        </g>
        <g
           id="g354"
           transform="translate(427.5811,424.2964)">
          <path
             d="m 0,0 c 0,-54.599 -38.295,-98.86 -85.536,-98.86 -8.333,0 -16.387,1.384 -24.004,3.952 1.121,-0.051 2.243,-0.083 3.373,-0.083 46.119,0 83.705,42.186 85.464,94.991 z"
             style="fill:#361b00;fill-opacity:1;fill-rule:evenodd;stroke:none"
             id="path356" />
        </g>
        <g
           id="g358"
           transform="translate(342.0449,495.8633)">
          <path
             d="m 0,0 v 0 c 3.724,0 6.772,-3.047 6.772,-6.77 v -78.444 c 0,-3.723 -3.048,-6.77 -6.772,-6.77 -3.723,0 -6.771,3.047 -6.771,6.77 V -6.77 C -6.771,-3.047 -3.723,0 0,0"
             style="fill:#361b00;fill-opacity:1;fill-rule:evenodd;stroke:none"
             id="path360" />
        </g>
        <g
           id="g362"
           transform="translate(372.9717,212.8281)">
          <path
             d="M 0,0 C 1.175,14.628 3.545,17.156 17.619,24.708 19.784,25.871 55.749,14.492 56.59,10.175 59.318,-3.818 47.244,-5.849 33.941,-8.409 19.777,-11.138 22.58,-13.694 14.307,-15.555 7.593,-17.064 -0.138,-1.703 0,0 m -85.032,16.233 c 0.101,7.324 -23.83,17.879 -31.048,6.024 -4.894,-8.034 -19.596,-21.83 -1.845,-30.534 5.813,-2.851 24.554,-0.442 28.767,4.35 7.776,8.841 11.009,4.008 4.13,18.322 -0.285,0.593 -0.012,1.277 -0.004,1.838 m 66.285,-38.072 c 9.526,20.682 19.113,25.256 -12.841,34.532 -23.751,6.895 -42.839,6.082 -29.034,-25.729 8.423,-19.411 28.867,-6.929 35.339,-11.696 1.765,-1.3 5.749,1.182 6.536,2.893"
             style="fill:#b5804c;fill-opacity:1;fill-rule:evenodd;stroke:none"
             id="path364" />
        </g>
        <g
           id="g366"
           transform="translate(260.77,238.8037)">
          <path
             d="m 0,0 43.788,41.856 67.639,1.545 56.803,-58.305 -55.995,-11.408 -10.47,42.658 0.583,-45.357 L 47.196,-18.5 53.45,0.112 30.88,-22.04 Z"
             style="fill:#734415;fill-opacity:1;fill-rule:evenodd;stroke:none"
             id="path368" />
        </g>
        <g
           id="g370"
           transform="translate(379.3848,213.374)">
          <path
             d="m 0,0 c 1.057,-2.611 4.81,-8.632 7.038,-9.779 1.442,0.355 2.489,0.761 3.837,1.562 5.3,3.149 9.347,4.32 15.452,5.495 3.922,0.756 14.571,2.403 17.094,5.729 0.753,0.991 0.872,2.381 0.768,3.69 C 38.816,9.966 18.93,16.7 12.701,17.765 9.243,15.917 4.277,13.156 2.439,10.362 0.76,7.812 0.273,3.275 0,0 m -97.873,15.232 c -1.536,2.085 -6.822,4.233 -8.955,4.798 -2.922,0.774 -8.328,1.523 -10.242,-1.622 -1.927,-3.16 -4.337,-6.06 -6.357,-9.177 -1.203,-1.858 -3.263,-5.296 -3.076,-7.606 0.179,-2.212 3.257,-3.913 4.959,-4.747 3.448,-1.623 18.457,0.314 21.206,2.842 1.513,1.723 3.134,3.275 4.914,4.722 0.287,0.234 0.634,0.493 0.985,0.758 -0.736,1.939 -2.163,4.733 -2.725,5.898 -0.696,1.45 -0.824,2.708 -0.709,4.134 m 67.396,-34 c 2.007,4.23 4.284,8.248 6.343,12.439 0.399,0.811 1.924,4.015 1.782,4.962 -0.372,0.747 -2.718,2.04 -3.39,2.38 -4.235,2.15 -9.479,3.716 -14.03,5.037 -4.526,1.313 -20.55,5.557 -24.505,1.649 -3.27,-3.23 1.694,-15.594 3.065,-18.755 1.786,-4.114 4.207,-6.584 8.705,-7.289 6.827,-1.069 15.502,2.135 22.03,-0.423"
             style="fill:#996633;fill-opacity:1;fill-rule:evenodd;stroke:none"
             id="path372" />
        </g>
        <g
           id="g374"
           transform="translate(387.1494,214.7773)">
          <path
             d="M 0,0 C 0.343,-0.616 0.76,-1.309 1.194,-1.98 6.387,0.818 11.07,2.166 17.127,3.331 17.832,3.467 18.915,3.661 20.165,3.9 19.599,4.102 19.028,4.302 18.461,4.498 14.824,5.757 10.21,7.392 6.143,8.361 4.143,7.227 1.736,5.746 1.029,4.805 0.53,3.957 0.198,1.769 0,0 m -112.953,9.852 c -1.251,0.622 -2.812,1.231 -3.584,1.435 -0.58,0.154 -1.764,0.396 -2.662,0.431 -1.801,-2.738 -3.841,-5.275 -5.621,-8.022 -0.196,-0.303 -0.481,-0.75 -0.772,-1.239 3.236,-0.138 10.079,0.797 12.6,1.776 0.495,0.534 0.999,1.056 1.516,1.565 -0.1,0.203 -0.199,0.406 -0.295,0.608 -0.552,1.144 -0.937,2.285 -1.182,3.446 m 73.438,-15.836 c -3.268,1.355 -6.855,2.385 -10.139,3.339 -2.794,0.812 -10.968,2.86 -15.636,3.011 0.682,-3.268 2.493,-7.989 3.281,-9.8 0.709,-1.639 1.132,-2.534 2.913,-2.813 2.439,-0.382 5.727,0.068 8.193,0.306 2.843,0.274 5.666,0.488 8.456,0.312 0.981,1.881 1.975,3.753 2.932,5.645"
             style="fill:#b5804c;fill-opacity:1;fill-rule:evenodd;stroke:none"
             id="path376" />
        </g>
        <g
           id="g378"
           transform="translate(394.5303,345.8491)">
          <path
             d="m 0,0 c -6.1,-12.199 -5.068,-25.295 -4.386,-38.917 0.988,-19.7 19.504,-35.584 8.961,-52.254 -11.834,-18.709 -43.123,-13.282 -65.245,-12.417 -20.878,0.814 -48.092,0.321 -60.24,17.319 -10.947,15.319 19.949,29.256 17.974,42.154 -3.397,22.165 -14.029,34.168 -26.142,44.115 13.18,2.566 27.351,4.051 39.54,-10.783 4.561,-5.551 8.665,-21.092 14.051,-16.339 7.786,6.871 -0.831,21.247 2.614,31.044 2.384,6.775 9.369,10.892 14.053,16.338 5.665,-5.989 13.796,-10.373 16.993,-17.972 2.998,-7.129 0.488,-19.516 8.172,-18.648 10.718,1.209 5.556,9.891 15.187,14.744 C -11.906,1.691 -7.19,1.525 0,0"
             style="fill:#ff9233;fill-opacity:1;fill-rule:evenodd;stroke:none"
             id="path380" />
        </g>
        <g
           id="g382"
           transform="translate(336.2061,319.6289)">
          <path
             d="m 0,0 c -0.002,-0.001 -0.004,-0.003 -0.005,-0.004 -1.512,-1.387 -3.885,-3.432 -4.584,-5.422 -0.565,-1.609 -0.126,-4.525 0.11,-6.184 0.874,-6.175 1.84,-12.616 -3.428,-17.263 -1.514,-1.337 -3.415,-2.09 -5.45,-1.958 -5.073,0.329 -7.578,5.513 -9.568,9.471 -0.621,1.231 -1.519,3.207 -2.381,4.254 -3.237,3.941 -6.62,5.718 -10.337,6.281 5.737,-6.88 9.256,-14.654 10.799,-24.724 1.044,-6.809 -4.534,-12.376 -8.682,-17.01 -1.451,-1.62 -5.014,-5.52 -5.114,-7.794 -0.027,-0.604 0.244,-1.118 0.588,-1.598 6.905,-9.663 26.11,-9.113 36.855,-9.533 5.163,-0.202 10.309,-0.687 15.474,-0.871 7.44,-0.265 19.645,-0.394 24.198,6.805 0.881,1.392 1.344,2.805 1.363,4.454 0.038,3.569 -2.068,8.066 -3.473,11.298 -2.357,5.424 -4.535,10.693 -4.837,16.694 -0.378,7.543 -0.833,14.759 0.865,21.824 -0.802,-0.195 -1.64,-0.511 -2.572,-0.981 -0.76,-0.382 -1.176,-0.742 -1.568,-1.486 -0.791,-1.501 -1.153,-2.896 -2.163,-4.389 -2.005,-2.964 -4.983,-4.337 -8.466,-4.728 -2.181,-0.246 -4.314,0.217 -6.092,1.536 -3.618,2.686 -3.889,7.232 -4.435,11.302 -0.13,0.966 -0.302,2.279 -0.68,3.18 -0.175,0.415 -0.392,0.81 -0.638,1.188 C 4.517,-3.724 2.341,-1.969 0.582,-0.489 0.387,-0.326 0.193,-0.164 0,0"
             style="fill:#ffc16b;fill-opacity:1;fill-rule:evenodd;stroke:none"
             id="path384" />
        </g>
        <g
           id="g386"
           transform="translate(337.9961,289.9971)">
          <path
             d="m 0,0 c 0.352,-4.942 -0.337,-9.492 -4.619,-13.27 -2.082,-1.838 -4.751,-2.827 -7.535,-2.647 -1.493,0.097 -2.79,0.465 -3.933,1.035 0.736,-6.744 -3.703,-11.579 -7.89,-16.259 -0.48,-0.535 -1.484,-1.639 -2.182,-2.584 4.998,-4.391 18.17,-4.12 23.85,-4.342 3.975,-0.156 7.936,-0.528 11.911,-0.669 3.566,-0.129 12.38,-0.401 14.598,3.107 0.218,0.345 0.334,0.617 0.339,1.025 0.02,1.785 -1.581,5.183 -2.295,6.823 -2.062,4.746 -3.84,9.225 -4.102,14.467 -0.088,1.732 -0.178,3.454 -0.23,5.17 -1.619,-0.87 -3.434,-1.396 -5.381,-1.614 -2.834,-0.32 -5.647,0.351 -7.949,2.06 C 1.759,-5.603 0.633,-2.961 0,0"
             style="fill:#fff07f;fill-opacity:1;fill-rule:evenodd;stroke:none"
             id="path388" />
        </g>
      </g>
    </g>
  </g>
</svg>
